<svg id="Layer_2" data-name="Layer 2" xmlns="http://www.w3.org/2000/svg" xmlns:xlink="http://www.w3.org/1999/xlink" viewBox="0 0 400 300" width="406" height="306" class="illustration styles_illustrationTablet__1DWOa"><defs><linearGradient id="linear-gradient" x1="150.55" y1="223.39" x2="184.23" y2="182.15" gradientUnits="userSpaceOnUse"><stop offset="0" stop-color="#dd6f31"></stop><stop offset="0.92" stop-color="#aa4731"></stop></linearGradient><linearGradient id="linear-gradient-2" x1="52.72" y1="185.6" x2="60.64" y2="170.78" xlink:href="#linear-gradient"></linearGradient><linearGradient id="linear-gradient-3" x1="316.09" y1="214.83" x2="333.38" y2="201.68" xlink:href="#linear-gradient"></linearGradient></defs><title>PP</title><path d="M194.28,286.39,14.56,180.17C8.84,177,3.93,171.68,9.51,168.22l180.37-104c2.71-1.68,6.82-2.78,9.57-1.18L388.11,172.58c5.72,3.32,6.75,12.6,1,15.93L218,286.22A23.9,23.9,0,0,1,194.28,286.39Z" fill="#dd6f31"></path><path d="M130.92,157.49c-3.14.74-38.28,24.18-38.28,24.18s-1.56,27.71,35.93,46.86,61,12,61,12l75.9-45.26" fill="url(#linear-gradient)"></path><path d="M247.38,66.07c-12.3-5-27.27-7.89-43.4-7.89-39.46,0-71.9,17.44-75.62,39.75h0v65.68l75.51,2.91,43.54-34.16V66.07Z" fill="#68e1fd"></path><polygon points="204.48 97.26 203.15 158.18 247.34 125.16 247.39 66.07 204.48 97.26" fill="#68e1fd"></polygon><polygon points="204.48 97.26 203.15 158.18 247.34 125.16 247.39 66.07 204.48 97.26" fill="#606060" opacity="0.52"></polygon><polygon points="204.48 97.26 128.35 97.94 128.17 135.86 203.15 158.18 204.48 97.26" fill="#606060" opacity="0.26"></polygon><path d="M216.61,199.25v17.07s20.87-1.64,37.27-11.37,20.13-18.21,21.1-26c.15-1.25.26-20.74.26-20.74" fill="#c90180"></path><path d="M203.15,158.18l44.19-33s26.2,9,27.9,33-34.75,39-58.63,41.06Z" fill="#f0008d"></path><path d="M217.9,166.93v49.28s-30.5,5.16-61.6-9.09c-21.93-10-25.89-22-27.93-31V124" fill="#edaf24"></path><path d="M128.35,124h75.45l14.09,43s-39.12,5.2-68.08-12.43C124.71,139.23,128.35,124,128.35,124Z" fill="#ffcb44"></path><polyline points="40.76 166.7 25.25 174.17 63.44 196.22 86.03 186.09" fill="url(#linear-gradient-2)"></polyline><ellipse cx="46.34" cy="168.79" rx="9.6" ry="4.32" fill="#68e1fd"></ellipse><polyline points="36.74 168.79 36.74 144.73 55.93 144.73 55.93 168.79 48.9 171.12" fill="#68e1fd"></polyline><path d="M36.74,144.73v24.06c0,2.39,4.3,4.32,9.6,4.32s9.6-1.94,9.6-4.32V144.73Z" fill="#0fb7ce" opacity="0.65"></path><ellipse cx="46.34" cy="144.73" rx="9.6" ry="4.32" fill="#68e1fd"></ellipse><ellipse cx="60.68" cy="177.44" rx="9.6" ry="4.32" fill="#edaf24"></ellipse><polyline points="51.08 177.44 51.08 160.14 70.28 160.14 70.28 177.44 63.25 179.77" fill="#edaf24"></polyline><ellipse cx="60.68" cy="160.14" rx="9.6" ry="4.32" fill="#ffcb44"></ellipse><ellipse cx="77.57" cy="184.05" rx="9.6" ry="4.32" fill="#c90180"></ellipse><polyline points="67.97 184.05 67.97 173.78 87.17 173.78 87.17 184.05 80.14 186.38" fill="#c90180"></polyline><ellipse cx="77.57" cy="174.17" rx="9.6" ry="4.32" fill="#f0008d"></ellipse><path d="M385.64,148.44V79.06c0-2.3-.32-3.59-2.09-4.56L289.28,19.91a1.25,1.25,0,0,0-2,1l.23,71.34Z" fill="#68e1fd"></path><path d="M314.81,40.1a4.15,4.15,0,0,0-3.63,4.81,4.58,4.58,0,0,0,4.57,4.3,4.15,4.15,0,0,0,3.63-4.81A4.58,4.58,0,0,0,314.81,40.1Z" fill="#fff"></path><path d="M304.71,35.54a4.15,4.15,0,0,0-3.63,4.81,4.58,4.58,0,0,0,4.57,4.3,4.15,4.15,0,0,0,3.63-4.81A4.58,4.58,0,0,0,304.71,35.54Z" fill="#f8997c"></path><path d="M294.17,31.1a4.62,4.62,0,0,0-2.83,5.62,4.12,4.12,0,0,0,5,3.26,4.62,4.62,0,0,0,2.83-5.62A4.12,4.12,0,0,0,294.17,31.1Z" fill="#5fad00"></path><path d="M305.09,57.1c6.34-2,13.45,3.16,16.19,11.78a19.61,19.61,0,0,1,.29,11.54c-1.16,3.78-3.55,6.41-6.72,7.42a9.15,9.15,0,0,1-2.78.43,11.49,11.49,0,0,1-7-2.62,19.61,19.61,0,0,1-6.42-9.6C295.92,67.44,298.74,59.11,305.09,57.1Z" fill="#fff"></path><path d="M310,56.89s0,16,0,16l-11.73-8S300.49,55.23,310,56.89Z" fill="#f8997c"></path><path d="M310,72.87l-11.88,1s-1.5-5.13.16-9Z" fill="#5fad00"></path><path d="M333.46,72.55c6.34-2,13.45,3.16,16.19,11.78a19.61,19.61,0,0,1,.29,11.54c-1.16,3.78-3.55,6.41-6.72,7.42a9.15,9.15,0,0,1-2.78.43,11.49,11.49,0,0,1-7-2.62,19.61,19.61,0,0,1-6.42-9.6C324.29,82.89,327.12,74.56,333.46,72.55Z" fill="#fff"></path><path d="M338.33,72.34s0,16,0,16l-11.73-8S328.86,70.68,338.33,72.34Z" fill="#f8997c"></path><path d="M338.33,88.32l-11.88,1s-1.5-5.13.16-9Z" fill="#5fad00"></path><path d="M362.87,88.35c6.34-2,13.45,3.16,16.19,11.78a19.61,19.61,0,0,1,.29,11.54c-1.16,3.78-3.55,6.41-6.72,7.42a9.15,9.15,0,0,1-2.78.43,11.49,11.49,0,0,1-7-2.62,19.61,19.61,0,0,1-6.42-9.6C353.7,98.7,356.53,90.37,362.87,88.35Z" fill="#fff"></path><path d="M367.74,88.14s0,16,0,16l-11.73-8S358.27,86.49,367.74,88.14Z" fill="#f8997c"></path><path d="M367.74,104.12l-11.88,1s-1.5-5.13.16-9Z" fill="#5fad00"></path><path d="M338.54,201.25l-44.33,15.83s-5.38.38,16.91,13.63l36.94-25.66" fill="url(#linear-gradient-3)"></path><path d="M326.13,152.55a8.72,8.72,0,0,1,4.24.83,6.9,6.9,0,0,1,3,3.41c.65,1.37.94,3.33,2.3,4.21a4,4,0,0,1,1.34,1.17,3.5,3.5,0,0,1,.42,3.26c-.6,1.2-3.11,1.95-4.26,1.72" fill="#8fdb5e"></path><path d="M325,152.7a8.19,8.19,0,0,0-7.23,6.2,10.82,10.82,0,0,0-.05,5.11c.33,1.36,1.13,3.71,2.78,3.81,2.24.14,3-2,3.67-3.67s1.44-3.61,3.24-4.29a4.82,4.82,0,0,1,5.16,1.16Z" fill="#1e8c0e"></path><path d="M335.24,161.78c-1.35-1.75-2.47-3.66-3.78-5.44a16.18,16.18,0,0,0-2.62-3.17c-3.11-1.51-7-.13-9.32,2.52.32.1.75.11,1,.2a8.85,8.85,0,0,1,3.56,2.52c1.38,1.52,2.45,3.39,3.66,5,2,2.63,4.6,4.79,8,3.22C337.89,165.63,336.2,163,335.24,161.78Z" fill="#8fdb5e"></path><path d="M346.21,139.29s7-.55,6.87,10.53-10.6,3.79-8.3-2.89" fill="#1e8c0e"></path><path d="M345.2,150.19c-.08-3.37,3.71-5.83,6.91-6.27a6.48,6.48,0,0,0-6.33-5c-4.8.12-8.39,5-9.2,10.74a11,11,0,0,0,3.53,9.38l2.32,2C346.68,159.4,345.1,153.27,345.2,150.19Z" fill="#8fdb5e"></path><path d="M364.29,158.12a14.63,14.63,0,0,0-1.62-6,6.63,6.63,0,0,0-4.56-3.53l-3.95,7.6s5.88-10.28,3.48-2.36,5.52,16.79,6.6,5C364.26,158.56,364.27,158.34,364.29,158.12Z" fill="#1e8c0e"></path><path d="M336.41,177.9s-5.27,3.43-3.81,11.45a44,44,0,0,0,2.34,8.14c1,2.61,1.77,6,4.4,7.45,2.45,1.37,6.24,1.62,8.71.11,2.26-1.38,3.07-4.52,3.9-6.85a42.52,42.52,0,0,0,2-8.85C356.47,170,336.41,177.9,336.41,177.9Z" fill="#68e1fd"></path><ellipse cx="343.51" cy="179.07" rx="7.69" ry="2.78" fill="#68e1fd"></ellipse><path d="M344.13,164.25c-1.07-2.59-3.08-4.77-3.71-7.55a9.88,9.88,0,0,1,3.93-10.08c.59-.43,0-1.41-.57-1-4.92,3.57-5.87,9.67-3,14.86a27,27,0,0,1,2.59,4.93c.71,2.32-.08,4-1.17,5.72a6.59,6.59,0,0,0-1.71-4.66c-1.28-1.19-3.16-1.38-4.74-1.92-3.06-1-5.76-2.78-6.28-6.2-.11-.72-1.21-.41-1.1.3a8.2,8.2,0,0,0,4.73,6.05,32.93,32.93,0,0,0,4.56,1.59,5.31,5.31,0,0,1,3,2.94c.73,1.67.23,2.82-.18,4.44-.53,2.11-1.37,3.92.08,5.91.43.59,1.41,0,1-.57-2.31-3.18,1.38-6.2,2.62-8.93A7,7,0,0,0,344.13,164.25Z" fill="#1e8c0e"></path><path d="M358.32,157.28c-4.86-.86-8.17,2.91-7.88,7.61a17.84,17.84,0,0,0,.65,3.48,9.11,9.11,0,0,1,.64,3,4.59,4.59,0,0,1-2.78,3.25,6.62,6.62,0,0,0-4.1,4.5.57.57,0,0,0,1.1.3c1.12-4.12,6.87-3.52,6.92-8.05,0-2.21-1.16-4.29-1.29-6.51-.24-3.87,2.29-7.25,6.44-6.51C358.73,158.51,359,157.41,358.32,157.28Z" fill="#1e8c0e"></path><path d="M362.66,152.1c-1.88-3.47-5.3-4.29-8.66-3.25a11,11,0,0,0-1.35.66c-8.44,6.25-2.45,20.36-1.15,20.26,4.3-.35,3.86-2.88,5.29-10a6.68,6.68,0,0,1,6.72-5.66A12.5,12.5,0,0,0,362.66,152.1Z" fill="#8fdb5e"></path><path d="M360.81,149.8a7,7,0,0,0-7.19,3.45c-3.08,5.16-2.37,11.17-2,16.86.05.73,1.19.73,1.14,0-.3-4.11-.88-8.19.24-12.23.55-2,1.21-4.19,2.79-5.6a5.83,5.83,0,0,1,6.35-.91l-.43-.58C361.43,150.46,361.12,150.13,360.81,149.8Z" fill="#1e8c0e"></path></svg>